<?xml version="1.0" encoding="UTF-8"?>
<svg width="16px" height="16px" viewBox="0 0 16 16" version="1.1" xmlns="http://www.w3.org/2000/svg" xmlns:xlink="http://www.w3.org/1999/xlink">
    <!-- Generator: Sketch 54.1 (76490) - https://sketchapp.com -->
    <title>icons/ic_angle_double_right</title>
    <desc>Created with Sketch.</desc>
    <g id="icons/ic_angle_double_right" stroke="none" stroke-width="1" fill="none" fill-rule="evenodd">
        <path d="M7.7591674,7.70521416 L11.8445794,3.6822545 C12.0075515,3.5192485 12.2711451,3.5192485 12.4341511,3.6822545 L12.6803704,3.92847383 C12.8433764,4.09147983 12.8433764,4.35507337 12.6803704,4.5180455 L9.13254291,8 L12.6769159,11.4819545 C12.839888,11.6449266 12.839888,11.9085202 12.6769159,12.0715262 L12.4306627,12.3177455 C12.2676567,12.4807515 12.004097,12.4807515 11.841091,12.3177455 L7.75571287,8.29478584 C7.59619526,8.13177984 7.59619526,7.86822016 7.7591674,7.70521416 Z M3.32003949,8.29478584 C3.15706736,8.13177984 3.15706736,7.86822016 3.31658497,7.70521416 L7.4019631,3.6822545 C7.5649691,3.5192485 7.82852877,3.5192485 7.99153477,3.6822545 L8.23778797,3.92847383 C8.4007601,4.09147983 8.4007601,4.35507337 8.23778797,4.5180455 L4.69341501,8 L8.24124249,11.4819545 C8.40424849,11.6449266 8.40424849,11.9085202 8.24124249,12.0715262 L7.99502316,12.3177455 C7.83201716,12.4807515 7.56842362,12.4807515 7.40545148,12.3177455 L3.32003949,8.29478584 Z" id="a" fill="#232323" transform="translate(8.000000, 8.000000) scale(-1, 1) translate(-8.000000, -8.000000) "></path>
    </g>
</svg>